<svg width="34" height="34" viewBox="0 0 34 34" fill="none" xmlns="http://www.w3.org/2000/svg">
<path d="M17.0002 0.33374C7.80016 0.33374 0.333496 7.80041 0.333496 17.0004C0.333496 26.2004 7.80016 33.6671 17.0002 33.6671C26.2002 33.6671 33.6668 26.2004 33.6668 17.0004C33.6668 7.80041 26.2002 0.33374 17.0002 0.33374ZM17.0002 30.3337C9.65016 30.3337 3.66683 24.3504 3.66683 17.0004C3.66683 9.65041 9.65016 3.66707 17.0002 3.66707C24.3502 3.66707 30.3335 9.65041 30.3335 17.0004C30.3335 24.3504 24.3502 30.3337 17.0002 30.3337ZM15.3335 23.6671H18.6668V27.0004H15.3335V23.6671ZM18.0168 7.06707C14.5835 6.56707 11.5502 8.68374 10.6335 11.7171C10.3335 12.6837 11.0668 13.6671 12.0835 13.6671H12.4168C13.1002 13.6671 13.6502 13.1837 13.8835 12.5504C14.4168 11.0671 16.0002 10.0504 17.7168 10.4171C19.3002 10.7504 20.4668 12.3004 20.3335 13.9171C20.1668 16.1504 17.6335 16.6337 16.2502 18.7171C16.2502 18.7337 16.2335 18.7337 16.2335 18.7504C16.2168 18.7837 16.2002 18.8004 16.1835 18.8337C16.0335 19.0837 15.8835 19.3671 15.7668 19.6671C15.7502 19.7171 15.7168 19.7504 15.7002 19.8004C15.6835 19.8337 15.6835 19.8671 15.6668 19.9171C15.4668 20.4837 15.3335 21.1671 15.3335 22.0004H18.6668C18.6668 21.3004 18.8502 20.7171 19.1335 20.2171C19.1668 20.1671 19.1835 20.1171 19.2168 20.0671C19.3502 19.8337 19.5168 19.6171 19.6835 19.4171C19.7002 19.4004 19.7168 19.3671 19.7335 19.3504C19.9002 19.1504 20.0835 18.9671 20.2835 18.7837C21.8835 17.2671 24.0502 16.0337 23.6002 12.8504C23.2002 9.95041 20.9168 7.50041 18.0168 7.06707Z" fill="#2FB95D"/>
</svg>
