<svg width="22" height="16" viewBox="0 0 22 16" fill="none" xmlns="http://www.w3.org/2000/svg">
<path d="M9 16C8.17157 16 7.5 15.3284 7.5 14.5C7.5 13.6716 8.17157 13 9 13H11H13C13.8284 13 14.5 13.6716 14.5 14.5C14.5 15.3284 13.8284 16 13 16H9ZM4 8.56667C4 7.70142 4.70142 7 5.56667 7H11H16.4333C17.2986 7 18 7.70142 18 8.56667C18 9.43191 17.2986 10.1333 16.4333 10.1333H11H5.56667C4.70142 10.1333 4 9.43191 4 8.56667ZM20.1667 0C20.903 0 21.5 0.596954 21.5 1.33333C21.5 2.06971 20.903 2.66667 20.1667 2.66667H11H1.83333C1.09695 2.66667 0.5 2.06971 0.5 1.33333C0.5 0.596954 1.09695 0 1.83333 0H20.1667Z" fill="black"/>
</svg>
