<svg width="22" height="12" viewBox="0 0 22 12" fill="none" xmlns="http://www.w3.org/2000/svg">
<path d="M12.5714 8H20.4286C20.8453 8 21.245 8.21072 21.5397 8.58579C21.8344 8.96086 22 9.46957 22 10C22 10.5304 21.8344 11.0391 21.5397 11.4142C21.245 11.7893 20.8453 12 20.4286 12H12.5714C12.1547 12 11.755 11.7893 11.4603 11.4142C11.1656 11.0391 11 10.5304 11 10C11 9.46957 11.1656 8.96086 11.4603 8.58579C11.755 8.21072 12.1547 8 12.5714 8ZM1.57143 0H20.4286C20.8453 0 21.245 0.210713 21.5397 0.585786C21.8344 0.960859 22 1.46957 22 2C22 2.53043 21.8344 3.03914 21.5397 3.41421C21.245 3.78929 20.8453 4 20.4286 4H1.57143C1.15466 4 0.754961 3.78929 0.460261 3.41421C0.165561 3.03914 0 2.53043 0 2C0 1.46957 0.165561 0.960859 0.460261 0.585786C0.754961 0.210713 1.15466 0 1.57143 0Z" fill="black"/>
</svg>
